<?xml version="1.0" standalone="no"?>
<!DOCTYPE svg PUBLIC "-//W3C//DTD SVG 20010904//EN"
 "http://www.w3.org/TR/2001/REC-SVG-20010904/DTD/svg10.dtd">
<svg version="1.0" xmlns="http://www.w3.org/2000/svg"
 width="700.000000pt" height="700.000000pt" viewBox="0 0 700.000000 700.000000"
 preserveAspectRatio="xMidYMid meet">
<metadata>
Created by potrace 1.14, written by Peter Selinger 2001-2017
</metadata>
<g transform="translate(0.000000,700.000000) scale(0.100000,-0.100000)"
fill="#000000" stroke="none">
<path d="M0 6603 l0 -398 1187 1 c654 0 1191 -1 1194 -3 4 -1 3 -20 -1 -40 -5
-21 -11 -49 -14 -63 -2 -14 -29 -135 -60 -270 -30 -135 -57 -256 -59 -270 -3
-14 -12 -55 -21 -91 -16 -71 -23 -102 -31 -146 -3 -16 -8 -39 -12 -53 -10 -39
-11 -43 -16 -70 -3 -14 -11 -47 -17 -75 -6 -27 -14 -61 -16 -75 -3 -14 -11
-53 -19 -86 -8 -34 -16 -73 -19 -85 -2 -13 -27 -125 -55 -249 -27 -124 -52
-238 -55 -255 -3 -16 -10 -45 -15 -62 -5 -18 -8 -33 -6 -33 2 0 -2 -18 -10
-40 -8 -22 -14 -44 -14 -48 0 -13 -8 -55 -41 -202 -12 -52 -25 -113 -30 -135
-5 -22 -23 -103 -40 -180 -32 -142 -88 -393 -95 -430 -3 -12 -28 -124 -56
-250 -28 -127 -53 -241 -55 -254 -3 -12 -12 -53 -20 -90 -9 -36 -18 -75 -20
-86 -2 -11 -6 -31 -9 -45 -3 -14 -7 -34 -9 -45 -3 -11 -23 -103 -46 -205 -23
-102 -44 -196 -46 -210 -3 -14 -12 -54 -20 -90 -33 -145 -73 -324 -80 -360 -3
-14 -14 -65 -25 -115 -12 -49 -22 -99 -25 -110 -2 -11 -33 -153 -69 -315 -36
-162 -67 -304 -69 -315 -2 -11 -20 -90 -39 -175 -20 -85 -38 -166 -40 -180 -3
-14 -10 -43 -15 -65 -9 -34 -22 -90 -57 -260 -3 -11 -7 -32 -11 -47 l-6 -28
545 0 545 0 6 35 c4 19 7 37 7 40 0 2 5 19 10 37 5 18 11 44 14 58 3 14 7 35
10 47 10 47 14 63 55 248 23 105 44 199 46 210 3 11 7 30 10 43 7 35 64 291
133 602 16 74 32 147 35 163 2 15 7 35 10 45 3 9 14 58 25 107 11 50 27 124
36 165 25 113 25 113 30 145 3 17 10 44 15 60 5 17 14 55 19 85 17 83 18 89
36 165 9 39 19 81 21 95 3 14 11 52 19 85 22 97 51 228 95 430 23 105 44 199
46 210 3 11 8 38 13 60 5 22 27 122 50 222 22 100 42 192 45 205 2 13 9 41 14
63 6 22 13 54 16 70 2 17 50 233 105 480 55 248 102 461 105 475 3 14 21 97
41 185 19 88 37 169 39 180 7 30 47 208 51 225 3 13 13 57 41 185 2 11 7 34 9
50 3 17 10 44 15 60 5 17 12 46 15 65 3 19 13 64 21 100 19 82 23 98 30 135 2
17 9 46 14 65 5 19 21 91 35 160 15 69 31 130 36 135 7 7 498 10 1432 10
l1422 1 22 99 c22 99 87 395 124 570 11 50 22 98 25 108 5 16 -154 17 -3250
17 l-3256 0 0 -397z"/>
</g>
</svg>
