<?xml version="1.0" encoding="utf-8"?>
<!-- Generator: Adobe Illustrator 25.2.0, SVG Export Plug-In . SVG Version: 6.00 Build 0)  -->
<svg version="1.1"
	 id="svg5" xmlns:inkscape="http://www.inkscape.org/namespaces/inkscape" xmlns:sodipodi="http://sodipodi.sourceforge.net/DTD/sodipodi-0.dtd" xmlns:svg="http://www.w3.org/2000/svg"
	 xmlns="http://www.w3.org/2000/svg" xmlns:xlink="http://www.w3.org/1999/xlink" x="0px" y="0px" viewBox="0 0 1000 1000"
	 style="enable-background:new 0 0 1000 1000;" xml:space="preserve">
<style type="text/css">
	.st0{fill:url(#path196_1_);}
	.st1{fill:none;}
	.st2{fill-opacity:0;}
	.st3{fill:#00FFFF;fill-opacity:0;}
</style>
<sodipodi:namedview  bordercolor="#eeeeee" borderopacity="1" id="namedview7" inkscape:current-layer="layer1" inkscape:cx="206.5" inkscape:cy="391.5" inkscape:document-units="mm" inkscape:pagecheckerboard="0" inkscape:pageopacity="0" inkscape:pageshadow="0" inkscape:snap-others="false" inkscape:snap-page="false" inkscape:snap-smooth-nodes="true" inkscape:window-height="1017" inkscape:window-maximized="1" inkscape:window-width="1920" inkscape:window-x="1272" inkscape:window-y="-8" inkscape:zoom="1" pagecolor="#505050" showgrid="false" units="px" width="500mm">
	</sodipodi:namedview>
<g>
	
		<linearGradient id="path196_1_" gradientUnits="userSpaceOnUse" x1="135.9963" y1="0.704" x2="69.2034" y2="264.9557" gradientTransform="matrix(3.7795 0 0 3.7795 0 2.733612e-02)">
		<stop  offset="0" style="stop-color:#FF00FF"/>
		<stop  offset="1" style="stop-color:#00FFFF"/>
	</linearGradient>
	<path id="path196" sodipodi:nodetypes="ccccccccccc" class="st0" d="M673.6,113.7h298.2l28.4-113.1H702.1 M592.4,0.6L29.7,0L0,114
		l408.8,0.3L174.1,999.7l154.2,0.3l234.4-885.5"/>
	<path id="path13096" sodipodi:nodetypes="cccc" class="st1" d="M562.7,114.5L592.4,0.6 M673.6,113.7L702,0.6"/>
	<rect id="rect7695" x="472.4" y="0.7" class="st2" width="32.2" height="172.8"/>
	<path id="path12312" class="st2" d="M181.9,975.1c3.4-13,56.1-211.8,117.1-441.9s110.5-418.5,110.2-418.9
		c-0.3-0.3-92.2-1.1-204-1.6l-203.4-1l13.4-51.1C22.5,32.5,29,7.6,29.5,5.4l1-4h280.4c266.3,0,280.3,0.1,279.5,2.6
		c-0.4,1.4-8,30.1-16.9,63.8c-13.1,50-232.9,881.1-243.2,919.7l-3,11.3h-75.8h-75.8L181.9,975.1z"/>
	<path id="path12351" class="st3" d="M181.9,975.1c3.4-13,56.1-211.8,117.1-441.9s110.5-418.5,110.2-418.9
		c-0.3-0.3-92.2-1.1-204-1.6l-203.4-1l13.4-51.1C22.5,32.5,29,7.6,29.5,5.4l1-4h280.4c266.3,0,280.3,0.1,279.5,2.6
		c-0.4,1.4-8,30.1-16.9,63.8c-13.1,50-232.9,881.1-243.2,919.7l-3,11.3h-75.8h-75.8L181.9,975.1z"/>
	<path id="path12427" class="st3" d="M181.9,975.1c3.4-13,56.1-211.8,117.1-441.9s110.5-418.5,110.2-418.9
		c-0.3-0.3-92.2-1.1-204-1.6l-203.4-1l13.4-51.1C22.5,32.5,29,7.6,29.5,5.4l1-4h280.4c266.3,0,280.3,0.1,279.5,2.6
		c-0.4,1.4-8,30.1-16.9,63.8c-13.1,50-232.9,881.1-243.2,919.7l-3,11.3h-75.8h-75.8L181.9,975.1z"/>
	<path id="path12466" class="st3" d="M181.9,975.1c3.4-13,56.1-211.8,117.1-441.9s110.5-418.5,110.2-418.9
		c-0.3-0.3-92.2-1.1-204-1.6l-203.4-1l13.4-51.1C22.5,32.5,29,7.6,29.5,5.4l1-4h280.4c266.3,0,280.3,0.1,279.5,2.6
		c-0.4,1.4-8,30.1-16.9,63.8c-13.1,50-232.9,881.1-243.2,919.7l-3,11.3h-75.8h-75.8L181.9,975.1z"/>
	<path id="path12505" class="st3" d="M181.9,975.1c3.4-13,56.1-211.8,117.1-441.9s110.5-418.5,110.2-418.9
		c-0.3-0.3-92.2-1.1-204-1.6l-203.4-1l13.4-51.1C22.5,32.5,29,7.6,29.5,5.4l1-4h280.4c266.3,0,280.3,0.1,279.5,2.6
		c-0.4,1.4-8,30.1-16.9,63.8c-13.1,50-232.9,881.1-243.2,919.7l-3,11.3h-75.8h-75.8L181.9,975.1z"/>
	<path id="path12544" class="st3" d="M181.9,975.1c3.4-13,56.1-211.8,117.1-441.9s110.5-418.5,110.2-418.9
		c-0.3-0.3-92.2-1.1-204-1.6l-203.4-1l13.4-51.1C22.5,32.5,29,7.6,29.5,5.4l1-4h280.4c266.3,0,280.3,0.1,279.5,2.6
		c-0.4,1.4-8,30.1-16.9,63.8c-13.1,50-232.9,881.1-243.2,919.7l-3,11.3h-75.8h-75.8L181.9,975.1z"/>
	<path id="path12583" class="st3" d="M181.9,975.1c3.4-13,56.1-211.8,117.1-441.9s110.5-418.5,110.2-418.9
		c-0.3-0.3-92.2-1.1-204-1.6l-203.4-1l13.4-51.1C22.5,32.5,29,7.6,29.5,5.4l1-4h280.4c266.3,0,280.3,0.1,279.5,2.6
		c-0.4,1.4-8,30.1-16.9,63.8c-13.1,50-232.9,881.1-243.2,919.7l-3,11.3h-75.8h-75.8L181.9,975.1z"/>
	<path id="path12622" class="st3" d="M181.9,975.1c3.4-13,56.1-211.8,117.1-441.9s110.5-418.5,110.2-418.9
		c-0.3-0.3-92.2-1.1-204-1.6l-203.4-1l13.4-51.1C22.5,32.5,29,7.6,29.5,5.4l1-4h280.4c266.3,0,280.3,0.1,279.5,2.6
		c-0.4,1.4-8,30.1-16.9,63.8c-13.1,50-232.9,881.1-243.2,919.7l-3,11.3h-75.8h-75.8L181.9,975.1z"/>
</g>
</svg>
