<?xml version="1.0" encoding="UTF-8" standalone="no"?>
<!-- Generator: Adobe Illustrator 25.2.0, SVG Export Plug-In . SVG Version: 6.00 Build 0)  -->

<svg
   version="1.1"
   id="svg5"
   x="0px"
   y="0px"
   viewBox="0 0 1000 1000"
   style="enable-background:new 0 0 1000 1000;"
   xml:space="preserve"
   sodipodi:docname="more tohle vypadá celkem dobře.svg"
   inkscape:version="1.1 (c68e22c387, 2021-05-23)"
   xmlns:inkscape="http://www.inkscape.org/namespaces/inkscape"
   xmlns:sodipodi="http://sodipodi.sourceforge.net/DTD/sodipodi-0.dtd"
   xmlns="http://www.w3.org/2000/svg"
   xmlns:svg="http://www.w3.org/2000/svg"><defs
   id="defs45">
	
<filter
   style="color-interpolation-filters:sRGB"
   x="-0.01210304"
   width="1.0242061"
   y="-0.01199969"
   height="1.0239994"
   inkscape:menu="Non-Realistic 3D Shaders"
   inkscape:menu-tooltip="Satiny glass effect"
   inkscape:label="Frosted Glass"
   id="filter6355"><feGaussianBlur
     in="SourceGraphic"
     result="result8"
     stdDeviation="5"
     id="feGaussianBlur6335" /><feComposite
     result="result18"
     operator="xor"
     in2="result8"
     in="SourceGraphic"
     id="feComposite6337" /><feComposite
     in2="result18"
     result="result16"
     operator="arithmetic"
     k2="0.5"
     k1="1"
     in="result8"
     id="feComposite6339" /><feComposite
     in="result16"
     operator="atop"
     result="result6"
     in2="result8"
     id="feComposite6341" /><feOffset
     in="result6"
     result="result17"
     id="feOffset6343" /><feDisplacementMap
     result="result4"
     scale="100"
     yChannelSelector="A"
     xChannelSelector="A"
     in="result17"
     in2="result16"
     id="feDisplacementMap6345" /><feComposite
     k3="1"
     in="result17"
     operator="arithmetic"
     result="result2"
     in2="result4"
     id="feComposite6347" /><feComposite
     operator="out"
     in="result2"
     result="fbSourceGraphic"
     in2="result17"
     id="feComposite6349" /><feComposite
     result="result14"
     operator="over"
     in2="fbSourceGraphic"
     in="fbSourceGraphic"
     id="feComposite6351" /><feComposite
     in="result14"
     operator="in"
     in2="SourceGraphic"
     result="result15"
     id="feComposite6353" /></filter></defs>
<style
   type="text/css"
   id="style2">
	.st0{fill:url(#SVGID_1_);}
	.st1{opacity:0;}
	.st2{opacity:0;fill:#00FFFF;}
</style>
<sodipodi:namedview
   bordercolor="#eeeeee"
   borderopacity="1"
   id="namedview7"
   inkscape:current-layer="svg5"
   inkscape:cx="647.0027"
   inkscape:cy="491.43921"
   inkscape:document-units="mm"
   inkscape:pagecheckerboard="0"
   inkscape:pageopacity="0"
   inkscape:pageshadow="0"
   inkscape:snap-others="false"
   inkscape:snap-page="false"
   inkscape:snap-smooth-nodes="true"
   inkscape:window-height="1017"
   inkscape:window-maximized="1"
   inkscape:window-width="1920"
   inkscape:window-x="1272"
   inkscape:window-y="-8"
   inkscape:zoom="0.70710678"
   pagecolor="#505050"
   showgrid="false"
   units="px"
   width="500mm">
	</sodipodi:namedview>
<g
   id="g40"
   style="filter:url(#filter6355)">
		<g
   id="path196_7_"
   sodipodi:nodetypes="ccccccccccc">
			
				<linearGradient
   id="SVGID_1_"
   gradientUnits="userSpaceOnUse"
   x1="135.789"
   y1="998.41461"
   x2="69.486099"
   y2="736.10181"
   gradientTransform="matrix(3.7795,0,0,-3.7795,0,3779.5273)">
				<stop
   offset="0"
   style="stop-color:#FF00FF"
   id="stop5" />
				<stop
   offset="1"
   style="stop-color:#00FFFF"
   id="stop7" />
			</linearGradient>
			<path
   id="path10"
   style="fill:url(#SVGID_1_)"
   class="st0"
   d="m 49.699219,0 c -11,0 -22.3,8.7007816 -25,19.300781 L 5,94.599609 C 2.3,105.29961 9,114 20,114 l 368.80078,0.30078 c 11,0 17.69844,8.69883 14.89844,19.29883 l -224.5,846.80078 c -2.8,10.6 3.90039,19.30039 14.90039,19.40039 L 308.30078,1000 c 11,0 22.29961,-8.70078 25.09961,-19.30078 L 563.51172,109.9375 584.65151,26.733048 c 0,0 1.69615,-13.198264 -8.28082,-19.519478 C 571.79499,4.314495 570.2168,0.12945468 555.65625,0.11328128 389.31641,-0.07148447 49.699219,0 49.699219,0 Z M 708.47461,5.9746094 c -5.85013,5.0196116 -7.51619,14.5931626 -7.51619,14.5931626 l -19.00233,71.374437 c 0,0 -0.7893,9.032561 3.14352,14.194511 3.76186,4.93756 13.83789,6 13.83789,6 l 252.86328,1.5625 c 10.99979,0.068 22.19844,-8.69844 24.89844,-19.398439 L 995.30078,20 c 2.7,-10.7 -4.16406,-19.96022019 -15.16406,-19.96289062 l -257.44922,-0.0625 c 0,0 -7.0297,-0.16341982 -14.21289,6.00000002 z"
   sodipodi:nodetypes="ccccccccccccsscsccscsccscs" />
		</g>
		<g
   id="rect7695_7_">
			<path
   class="st1"
   d="m 472.4,20.7 c 0,-11 7.2,-20 16.1,-20 8.9,0 16.1,9 16.1,20 v 132.8 c 0,11 -7.2,20 -16.1,20 -8.9,0 -16.1,-9 -16.1,-20 z"
   id="path13" />
		</g>
		<g
   id="path12312_7_">
			<path
   class="st1"
   d="m 178.8,986.9 c 1.7,-6.5 5.4,-20.5 8.2,-31.2 0,0 51,-192.5 112,-422.6 C 360,303 404.2,133.6 404.2,133.6 407,123 400.2,114.1 389.2,114 l -164,-1.2 c -11,-0.1 -29,-0.2 -40,-0.2 L 21.8,111.8 C 10.8,111.7 4.1,103 6.9,92.4 L 10.2,80 C 13,69.4 17.5,51.9 20.3,41.3 c 0,0 3.8,-14.8 5.8,-22.3 2,-7.5 3.7,-14.5 4,-15.6 0.3,-1.1 9.5,-2 20.5,-2 H 291 c 11,0 29,0 40,0 0,0 249.3,0.6 252.9,1.3 3.6,0.7 4.8,8.1 2.6,16.3 -2.2,8.2 -15.2,57.5 -18,68.1 l -233,881 c -2.8,10.6 -5.8,21.9 -6.6,25 -0.8,3.1 -10.5,5.6 -21.5,5.6 h -35.8 c -11,0 -29,0 -40,0 h -35.8 c -11.1,0.1 -18.7,-5.2 -17,-11.8 z"
   id="path16" />
		</g>
		<g
   id="path12351_7_">
			<path
   class="st2"
   d="m 178.8,986.9 c 1.7,-6.5 5.4,-20.5 8.2,-31.2 0,0 51,-192.5 112,-422.6 C 360,303 404.2,133.6 404.2,133.6 407,123 400.2,114.1 389.2,114 l -164,-1.2 c -11,-0.1 -29,-0.2 -40,-0.2 L 21.8,111.8 C 10.8,111.7 4.1,103 6.9,92.4 L 10.2,80 C 13,69.4 17.5,51.9 20.3,41.3 c 0,0 3.8,-14.8 5.8,-22.3 2,-7.5 3.7,-14.5 4,-15.6 0.3,-1.1 9.5,-2 20.5,-2 H 291 c 11,0 29,0 40,0 0,0 249.3,0.6 252.9,1.3 3.6,0.7 4.8,8.1 2.6,16.3 -2.2,8.2 -15.2,57.5 -18,68.1 l -233,881 c -2.8,10.6 -5.8,21.9 -6.6,25 -0.8,3.1 -10.5,5.6 -21.5,5.6 h -35.8 c -11,0 -29,0 -40,0 h -35.8 c -11.1,0.1 -18.7,-5.2 -17,-11.8 z"
   id="path19" />
		</g>
		<g
   id="path12427_7_">
			<path
   class="st2"
   d="m 178.8,986.9 c 1.7,-6.5 5.4,-20.5 8.2,-31.2 0,0 51,-192.5 112,-422.6 C 360,303 404.2,133.6 404.2,133.6 407,123 400.2,114.1 389.2,114 l -164,-1.2 c -11,-0.1 -29,-0.2 -40,-0.2 L 21.8,111.8 C 10.8,111.7 4.1,103 6.9,92.4 L 10.2,80 C 13,69.4 17.5,51.9 20.3,41.3 c 0,0 3.8,-14.8 5.8,-22.3 2,-7.5 3.7,-14.5 4,-15.6 0.3,-1.1 9.5,-2 20.5,-2 H 291 c 11,0 29,0 40,0 0,0 249.3,0.6 252.9,1.3 3.6,0.7 4.8,8.1 2.6,16.3 -2.2,8.2 -15.2,57.5 -18,68.1 l -233,881 c -2.8,10.6 -5.8,21.9 -6.6,25 -0.8,3.1 -10.5,5.6 -21.5,5.6 h -35.8 c -11,0 -29,0 -40,0 h -35.8 c -11.1,0.1 -18.7,-5.2 -17,-11.8 z"
   id="path22" />
		</g>
		<g
   id="path12466_7_">
			<path
   class="st2"
   d="m 178.8,986.9 c 1.7,-6.5 5.4,-20.5 8.2,-31.2 0,0 51,-192.5 112,-422.6 C 360,303 404.2,133.6 404.2,133.6 407,123 400.2,114.1 389.2,114 l -164,-1.2 c -11,-0.1 -29,-0.2 -40,-0.2 L 21.8,111.8 C 10.8,111.7 4.1,103 6.9,92.4 L 10.2,80 C 13,69.4 17.5,51.9 20.3,41.3 c 0,0 3.8,-14.8 5.8,-22.3 2,-7.5 3.7,-14.5 4,-15.6 0.3,-1.1 9.5,-2 20.5,-2 H 291 c 11,0 29,0 40,0 0,0 249.3,0.6 252.9,1.3 3.6,0.7 4.8,8.1 2.6,16.3 -2.2,8.2 -15.2,57.5 -18,68.1 l -233,881 c -2.8,10.6 -5.8,21.9 -6.6,25 -0.8,3.1 -10.5,5.6 -21.5,5.6 h -35.8 c -11,0 -29,0 -40,0 h -35.8 c -11.1,0.1 -18.7,-5.2 -17,-11.8 z"
   id="path25" />
		</g>
		<g
   id="path12505_7_">
			<path
   class="st2"
   d="m 178.8,986.9 c 1.7,-6.5 5.4,-20.5 8.2,-31.2 0,0 51,-192.5 112,-422.6 C 360,303 404.2,133.6 404.2,133.6 407,123 400.2,114.1 389.2,114 l -164,-1.2 c -11,-0.1 -29,-0.2 -40,-0.2 L 21.8,111.8 C 10.8,111.7 4.1,103 6.9,92.4 L 10.2,80 C 13,69.4 17.5,51.9 20.3,41.3 c 0,0 3.8,-14.8 5.8,-22.3 2,-7.5 3.7,-14.5 4,-15.6 0.3,-1.1 9.5,-2 20.5,-2 H 291 c 11,0 29,0 40,0 0,0 249.3,0.6 252.9,1.3 3.6,0.7 4.8,8.1 2.6,16.3 -2.2,8.2 -15.2,57.5 -18,68.1 l -233,881 c -2.8,10.6 -5.8,21.9 -6.6,25 -0.8,3.1 -10.5,5.6 -21.5,5.6 h -35.8 c -11,0 -29,0 -40,0 h -35.8 c -11.1,0.1 -18.7,-5.2 -17,-11.8 z"
   id="path28" />
		</g>
		<g
   id="path12544_7_">
			<path
   class="st2"
   d="m 178.8,986.9 c 1.7,-6.5 5.4,-20.5 8.2,-31.2 0,0 51,-192.5 112,-422.6 C 360,303 404.2,133.6 404.2,133.6 407,123 400.2,114.1 389.2,114 l -164,-1.2 c -11,-0.1 -29,-0.2 -40,-0.2 L 21.8,111.8 C 10.8,111.7 4.1,103 6.9,92.4 L 10.2,80 C 13,69.4 17.5,51.9 20.3,41.3 c 0,0 3.8,-14.8 5.8,-22.3 2,-7.5 3.7,-14.5 4,-15.6 0.3,-1.1 9.5,-2 20.5,-2 H 291 c 11,0 29,0 40,0 0,0 249.3,0.6 252.9,1.3 3.6,0.7 4.8,8.1 2.6,16.3 -2.2,8.2 -15.2,57.5 -18,68.1 l -233,881 c -2.8,10.6 -5.8,21.9 -6.6,25 -0.8,3.1 -10.5,5.6 -21.5,5.6 h -35.8 c -11,0 -29,0 -40,0 h -35.8 c -11.1,0.1 -18.7,-5.2 -17,-11.8 z"
   id="path31" />
		</g>
		<g
   id="path12583_7_">
			<path
   class="st2"
   d="m 178.8,986.9 c 1.7,-6.5 5.4,-20.5 8.2,-31.2 0,0 51,-192.5 112,-422.6 C 360,303 404.2,133.6 404.2,133.6 407,123 400.2,114.1 389.2,114 l -164,-1.2 c -11,-0.1 -29,-0.2 -40,-0.2 L 21.8,111.8 C 10.8,111.7 4.1,103 6.9,92.4 L 10.2,80 C 13,69.4 17.5,51.9 20.3,41.3 c 0,0 3.8,-14.8 5.8,-22.3 2,-7.5 3.7,-14.5 4,-15.6 0.3,-1.1 9.5,-2 20.5,-2 H 291 c 11,0 29,0 40,0 0,0 249.3,0.6 252.9,1.3 3.6,0.7 4.8,8.1 2.6,16.3 -2.2,8.2 -15.2,57.5 -18,68.1 l -233,881 c -2.8,10.6 -5.8,21.9 -6.6,25 -0.8,3.1 -10.5,5.6 -21.5,5.6 h -35.8 c -11,0 -29,0 -40,0 h -35.8 c -11.1,0.1 -18.7,-5.2 -17,-11.8 z"
   id="path34" />
		</g>
		<g
   id="path12622_7_">
			<path
   class="st2"
   d="m 178.8,986.9 c 1.7,-6.5 5.4,-20.5 8.2,-31.2 0,0 51,-192.5 112,-422.6 C 360,303 404.2,133.6 404.2,133.6 407,123 400.2,114.1 389.2,114 l -164,-1.2 c -11,-0.1 -29,-0.2 -40,-0.2 L 21.8,111.8 C 10.8,111.7 4.1,103 6.9,92.4 L 10.2,80 C 13,69.4 17.5,51.9 20.3,41.3 c 0,0 3.8,-14.8 5.8,-22.3 2,-7.5 3.7,-14.5 4,-15.6 0.3,-1.1 9.5,-2 20.5,-2 H 291 c 11,0 29,0 40,0 0,0 249.3,0.6 252.9,1.3 3.6,0.7 4.8,8.1 2.6,16.3 -2.2,8.2 -15.2,57.5 -18,68.1 l -233,881 c -2.8,10.6 -5.8,21.9 -6.6,25 -0.8,3.1 -10.5,5.6 -21.5,5.6 h -35.8 c -11,0 -29,0 -40,0 h -35.8 c -11.1,0.1 -18.7,-5.2 -17,-11.8 z"
   id="path37" />
		</g>
	</g>
</svg>
