<?xml version="1.0" encoding="UTF-8" standalone="no"?>
<!-- Generator: Adobe Illustrator 25.2.0, SVG Export Plug-In . SVG Version: 6.00 Build 0)  -->

<svg
   version="1.1"
   id="svg5"
   x="0px"
   y="0px"
   viewBox="0 0 1000 1000"
   style="enable-background:new 0 0 1000 1000;"
   xml:space="preserve"
   sodipodi:docname="round corners v1.svg"
   inkscape:version="1.1 (c68e22c387, 2021-05-23)"
   xmlns:inkscape="http://www.inkscape.org/namespaces/inkscape"
   xmlns:sodipodi="http://sodipodi.sourceforge.net/DTD/sodipodi-0.dtd"
   xmlns="http://www.w3.org/2000/svg"
   xmlns:svg="http://www.w3.org/2000/svg"><defs
   id="defs45" />
<style
   type="text/css"
   id="style2">
	.st0{fill:url(#SVGID_1_);}
	.st1{opacity:0;}
	.st2{opacity:0;fill:#00FFFF;}
</style>
<sodipodi:namedview
   bordercolor="#eeeeee"
   borderopacity="1"
   id="namedview7"
   inkscape:current-layer="svg5"
   inkscape:cx="692.39012"
   inkscape:cy="108.25363"
   inkscape:document-units="mm"
   inkscape:pagecheckerboard="0"
   inkscape:pageopacity="0"
   inkscape:pageshadow="0"
   inkscape:snap-others="false"
   inkscape:snap-page="false"
   inkscape:snap-smooth-nodes="true"
   inkscape:window-height="1017"
   inkscape:window-maximized="1"
   inkscape:window-width="1920"
   inkscape:window-x="1272"
   inkscape:window-y="-8"
   inkscape:zoom="22.627417"
   pagecolor="#505050"
   showgrid="false"
   units="px"
   width="500mm">
	</sodipodi:namedview>
<g
   id="g42">
	<g
   id="g40">
		<g
   id="path196_7_"
   sodipodi:nodetypes="ccccccccccc">
			
				<linearGradient
   id="SVGID_1_"
   gradientUnits="userSpaceOnUse"
   x1="135.789"
   y1="998.4146"
   x2="69.4861"
   y2="736.1018"
   gradientTransform="matrix(3.7795,0,0,-3.7795,0,3779.5273)">
				<stop
   offset="0"
   style="stop-color:#FF00FF"
   id="stop5" />
				<stop
   offset="1"
   style="stop-color:#00FFFF"
   id="stop7" />
			</linearGradient>
			<path
   id="path10"
   style="fill:url(#SVGID_1_)"
   class="st0"
   d="m 49.699219,0 c -11,0 -22.3,8.7007816 -25,19.300781 L 5,94.599609 C 2.3,105.29961 9,114 20,114 l 368.80078,0.30078 c 11,0 17.69844,8.69883 14.89844,19.29883 l -224.5,846.80078 c -2.8,10.6 3.90039,19.30039 14.90039,19.40039 L 308.30078,1000 c 11,0 22.29961,-8.70078 25.09961,-19.30078 L 563.51172,109.9375 584.65151,26.733048 c 0,0 1.69615,-13.198264 -8.28082,-19.519478 C 571.79499,4.314495 570.1543,0.87945468 555.59375,0.86328128 389.25391,0.67851553 49.699219,0 49.699219,0 Z M 707.84961,6.2246094 C 699.63904,12.429556 696.58342,22.942772 696.58342,22.942772 l -22.98381,90.756448 h 278.20117 c 11,0 22.19844,-8.69844 24.89844,-19.398439 L 995.30078,20 c 2.7,-10.7 -4.10156,-19.40039062 -15.10156,-19.40039062 H 728.1875 c 0,0 -12.78627,-0.0819628 -20.33789,5.62500002 z"
   sodipodi:nodetypes="ccccccccccccsscsccsccscs" />
		</g>
		<g
   id="rect7695_7_">
			<path
   class="st1"
   d="M472.4,20.7c0-11,7.2-20,16.1-20s16.1,9,16.1,20v132.8c0,11-7.2,20-16.1,20s-16.1-9-16.1-20V20.7z"
   id="path13" />
		</g>
		<g
   id="path12312_7_">
			<path
   class="st1"
   d="M178.8,986.9c1.7-6.5,5.4-20.5,8.2-31.2c0,0,51-192.5,112-422.6s105.2-399.5,105.2-399.5     c2.8-10.6-4-19.5-15-19.6l-164-1.2c-11-0.1-29-0.2-40-0.2l-163.4-0.8c-11-0.1-17.7-8.8-14.9-19.4l3.3-12.4     c2.8-10.6,7.3-28.1,10.1-38.7c0,0,3.8-14.8,5.8-22.3s3.7-14.5,4-15.6s9.5-2,20.5-2h240.4c11,0,29,0,40,0c0,0,249.3,0.6,252.9,1.3     s4.8,8.1,2.6,16.3s-15.2,57.5-18,68.1l-233,881c-2.8,10.6-5.8,21.9-6.6,25c-0.8,3.1-10.5,5.6-21.5,5.6h-35.8c-11,0-29,0-40,0     h-35.8C184.7,998.8,177.1,993.5,178.8,986.9z"
   id="path16" />
		</g>
		<g
   id="path12351_7_">
			<path
   class="st2"
   d="M178.8,986.9c1.7-6.5,5.4-20.5,8.2-31.2c0,0,51-192.5,112-422.6s105.2-399.5,105.2-399.5     c2.8-10.6-4-19.5-15-19.6l-164-1.2c-11-0.1-29-0.2-40-0.2l-163.4-0.8c-11-0.1-17.7-8.8-14.9-19.4l3.3-12.4     c2.8-10.6,7.3-28.1,10.1-38.7c0,0,3.8-14.8,5.8-22.3s3.7-14.5,4-15.6s9.5-2,20.5-2h240.4c11,0,29,0,40,0c0,0,249.3,0.6,252.9,1.3     s4.8,8.1,2.6,16.3s-15.2,57.5-18,68.1l-233,881c-2.8,10.6-5.8,21.9-6.6,25c-0.8,3.1-10.5,5.6-21.5,5.6h-35.8c-11,0-29,0-40,0     h-35.8C184.7,998.8,177.1,993.5,178.8,986.9z"
   id="path19" />
		</g>
		<g
   id="path12427_7_">
			<path
   class="st2"
   d="M178.8,986.9c1.7-6.5,5.4-20.5,8.2-31.2c0,0,51-192.5,112-422.6s105.2-399.5,105.2-399.5     c2.8-10.6-4-19.5-15-19.6l-164-1.2c-11-0.1-29-0.2-40-0.2l-163.4-0.8c-11-0.1-17.7-8.8-14.9-19.4l3.3-12.4     c2.8-10.6,7.3-28.1,10.1-38.7c0,0,3.8-14.8,5.8-22.3s3.7-14.5,4-15.6s9.5-2,20.5-2h240.4c11,0,29,0,40,0c0,0,249.3,0.6,252.9,1.3     s4.8,8.1,2.6,16.3s-15.2,57.5-18,68.1l-233,881c-2.8,10.6-5.8,21.9-6.6,25c-0.8,3.1-10.5,5.6-21.5,5.6h-35.8c-11,0-29,0-40,0     h-35.8C184.7,998.8,177.1,993.5,178.8,986.9z"
   id="path22" />
		</g>
		<g
   id="path12466_7_">
			<path
   class="st2"
   d="M178.8,986.9c1.7-6.5,5.4-20.5,8.2-31.2c0,0,51-192.5,112-422.6s105.2-399.5,105.2-399.5     c2.8-10.6-4-19.5-15-19.6l-164-1.2c-11-0.1-29-0.2-40-0.2l-163.4-0.8c-11-0.1-17.7-8.8-14.9-19.4l3.3-12.4     c2.8-10.6,7.3-28.1,10.1-38.7c0,0,3.8-14.8,5.8-22.3s3.7-14.5,4-15.6s9.5-2,20.5-2h240.4c11,0,29,0,40,0c0,0,249.3,0.6,252.9,1.3     s4.8,8.1,2.6,16.3s-15.2,57.5-18,68.1l-233,881c-2.8,10.6-5.8,21.9-6.6,25c-0.8,3.1-10.5,5.6-21.5,5.6h-35.8c-11,0-29,0-40,0     h-35.8C184.7,998.8,177.1,993.5,178.8,986.9z"
   id="path25" />
		</g>
		<g
   id="path12505_7_">
			<path
   class="st2"
   d="M178.8,986.9c1.7-6.5,5.4-20.5,8.2-31.2c0,0,51-192.5,112-422.6s105.2-399.5,105.2-399.5     c2.8-10.6-4-19.5-15-19.6l-164-1.2c-11-0.1-29-0.2-40-0.2l-163.4-0.8c-11-0.1-17.7-8.8-14.9-19.4l3.3-12.4     c2.8-10.6,7.3-28.1,10.1-38.7c0,0,3.8-14.8,5.8-22.3s3.7-14.5,4-15.6s9.5-2,20.5-2h240.4c11,0,29,0,40,0c0,0,249.3,0.6,252.9,1.3     s4.8,8.1,2.6,16.3s-15.2,57.5-18,68.1l-233,881c-2.8,10.6-5.8,21.9-6.6,25c-0.8,3.1-10.5,5.6-21.5,5.6h-35.8c-11,0-29,0-40,0     h-35.8C184.7,998.8,177.1,993.5,178.8,986.9z"
   id="path28" />
		</g>
		<g
   id="path12544_7_">
			<path
   class="st2"
   d="M178.8,986.9c1.7-6.5,5.4-20.5,8.2-31.2c0,0,51-192.5,112-422.6s105.2-399.5,105.2-399.5     c2.8-10.6-4-19.5-15-19.6l-164-1.2c-11-0.1-29-0.2-40-0.2l-163.4-0.8c-11-0.1-17.7-8.8-14.9-19.4l3.3-12.4     c2.8-10.6,7.3-28.1,10.1-38.7c0,0,3.8-14.8,5.8-22.3s3.7-14.5,4-15.6s9.5-2,20.5-2h240.4c11,0,29,0,40,0c0,0,249.3,0.6,252.9,1.3     s4.8,8.1,2.6,16.3s-15.2,57.5-18,68.1l-233,881c-2.8,10.6-5.8,21.9-6.6,25c-0.8,3.1-10.5,5.6-21.5,5.6h-35.8c-11,0-29,0-40,0     h-35.8C184.7,998.8,177.1,993.5,178.8,986.9z"
   id="path31" />
		</g>
		<g
   id="path12583_7_">
			<path
   class="st2"
   d="M178.8,986.9c1.7-6.5,5.4-20.5,8.2-31.2c0,0,51-192.5,112-422.6s105.2-399.5,105.2-399.5     c2.8-10.6-4-19.5-15-19.6l-164-1.2c-11-0.1-29-0.2-40-0.2l-163.4-0.8c-11-0.1-17.7-8.8-14.9-19.4l3.3-12.4     c2.8-10.6,7.3-28.1,10.1-38.7c0,0,3.8-14.8,5.8-22.3s3.7-14.5,4-15.6s9.5-2,20.5-2h240.4c11,0,29,0,40,0c0,0,249.3,0.6,252.9,1.3     s4.8,8.1,2.6,16.3s-15.2,57.5-18,68.1l-233,881c-2.8,10.6-5.8,21.9-6.6,25c-0.8,3.1-10.5,5.6-21.5,5.6h-35.8c-11,0-29,0-40,0     h-35.8C184.7,998.8,177.1,993.5,178.8,986.9z"
   id="path34" />
		</g>
		<g
   id="path12622_7_">
			<path
   class="st2"
   d="M178.8,986.9c1.7-6.5,5.4-20.5,8.2-31.2c0,0,51-192.5,112-422.6s105.2-399.5,105.2-399.5     c2.8-10.6-4-19.5-15-19.6l-164-1.2c-11-0.1-29-0.2-40-0.2l-163.4-0.8c-11-0.1-17.7-8.8-14.9-19.4l3.3-12.4     c2.8-10.6,7.3-28.1,10.1-38.7c0,0,3.8-14.8,5.8-22.3s3.7-14.5,4-15.6s9.5-2,20.5-2h240.4c11,0,29,0,40,0c0,0,249.3,0.6,252.9,1.3     s4.8,8.1,2.6,16.3s-15.2,57.5-18,68.1l-233,881c-2.8,10.6-5.8,21.9-6.6,25c-0.8,3.1-10.5,5.6-21.5,5.6h-35.8c-11,0-29,0-40,0     h-35.8C184.7,998.8,177.1,993.5,178.8,986.9z"
   id="path37" />
		</g>
	</g>
</g>
</svg>
